<svg xmlns="http://www.w3.org/2000/svg" viewBox="0 0 40 40" fill="none">
  <circle cx="20" cy="20" r="20" fill="#8247E5"/>
  <path d="M25.8 16.8a1.5 1.5 0 0 0-1.5 0l-3.5 2.1-2.4 1.3-3.5 2.1a1.5 1.5 0 0 1-1.5 0l-2.7-1.6a1.5 1.5 0 0 1-.7-1.3v-3.1c0-.5.3-1 .7-1.3l2.7-1.5a1.5 1.5 0 0 1 1.5 0l2.7 1.5c.4.3.7.8.7 1.3v2.1l2.4-1.4v-2.1c0-.5-.3-1-.7-1.3l-5.1-3a1.5 1.5 0 0 0-1.5 0l-5.2 3c-.4.3-.7.8-.7 1.3v6c0 .5.3 1 .7 1.3l5.1 3a1.5 1.5 0 0 0 1.5 0l3.5-2 2.4-1.4 3.5-2a1.5 1.5 0 0 1 1.5 0l2.7 1.5c.4.3.7.8.7 1.3v3.1c0 .5-.3 1-.7 1.3l-2.7 1.6a1.5 1.5 0 0 1-1.5 0l-2.7-1.6a1.5 1.5 0 0 1-.7-1.3v-2l-2.4 1.4v2.1c0 .5.3 1 .7 1.3l5.1 3a1.5 1.5 0 0 0 1.5 0l5.1-3c.5-.3.8-.8.8-1.3v-6c0-.5-.3-1-.7-1.3l-5.2-3z" fill="white"/>
</svg>
