<svg xmlns="http://www.w3.org/2000/svg" viewBox="0 0 40 40" fill="none">
  <circle cx="20" cy="20" r="20" fill="#9945FF"/>
  <path d="M11.5 25.2c.2-.2.4-.3.7-.3h17.1c.4 0 .6.5.3.8l-3.4 3.4c-.2.2-.4.3-.7.3H8.4c-.4 0-.6-.5-.3-.8l3.4-3.4z" fill="white"/>
  <path d="M11.5 10.9c.2-.2.5-.3.7-.3h17.1c.4 0 .6.5.3.8l-3.4 3.4c-.2.2-.4.3-.7.3H8.4c-.4 0-.6-.5-.3-.8l3.4-3.4z" fill="white"/>
  <path d="M28.5 18c-.2-.2-.4-.3-.7-.3H10.7c-.4 0-.6.5-.3.8l3.4 3.4c.2.2.4.3.7.3h17.1c.4 0 .6-.5.3-.8L28.5 18z" fill="white"/>
</svg>
